<svg xmlns="http://www.w3.org/2000/svg" width="451" height="419" viewBox="0 0 451 419">
  <title>grid</title>
  <g id="Layer_2" data-name="Layer 2">
    <g id="Layer_1-2" data-name="Layer 1">
      <g opacity="0.1">
        <polygon points="100.946 0 98.842 0 99.894 1.052 100.946 0" fill="none"/>
        <polygon points="119.923 21.081 139.245 1.759 137.485 0 102.36 0 100.601 1.759 119.923 21.081" fill="none"/>
        <polygon points="159.981 21.081 179.302 1.76 177.543 0 142.418 0 140.659 1.759 159.981 21.081" fill="none"/>
        <polygon points="141.004 0 138.899 0 139.952 1.052 141.004 0" fill="none"/>
        <polygon points="181.062 0 178.957 0 180.01 1.052 181.062 0" fill="none"/>
        <polygon points="39.808 21.081 59.129 1.759 57.37 0 22.245 0 20.486 1.759 39.808 21.081" fill="none"/>
        <polygon points="60.889 0 58.784 0 59.836 1.052 60.889 0" fill="none"/>
        <polygon points="79.865 21.081 99.187 1.759 97.428 0 62.303 0 60.543 1.759 79.865 21.081" fill="none"/>
        <polygon points="20.831 0 18.727 0 19.779 1.052 20.831 0" fill="none"/>
        <polygon points="341.293 0 339.188 0 340.24 1.052 341.293 0" fill="none"/>
        <polygon points="301.235 0 299.13 0 300.183 1.053 301.235 0" fill="none"/>
        <polygon points="200.038 21.081 219.36 1.76 217.601 0 182.476 0 180.717 1.76 200.038 21.081" fill="none"/>
        <polygon points="17.313 0 0 0 0 20.831 19.072 1.759 17.313 0" fill="none"/>
        <polygon points="320.211 21.082 339.533 1.76 337.774 0 302.649 0 300.89 1.76 320.211 21.082" fill="none"/>
        <polygon points="221.12 0 219.015 0 220.067 1.053 221.12 0" fill="none"/>
        <polygon points="240.096 21.082 259.418 1.76 257.658 0 222.534 0 220.774 1.76 240.096 21.082" fill="none"/>
        <polygon points="280.154 21.082 299.476 1.76 297.716 0 262.592 0 260.832 1.76 280.154 21.082" fill="none"/>
        <polygon points="261.178 0 259.072 0 260.125 1.053 261.178 0" fill="none"/>
        <rect x="186.37601" y="108.27006" width="27.32512" height="27.32512" transform="translate(-27.62944 177.16187) rotate(-45)" fill="none"/>
        <rect x="86.23154" y="8.1255" width="27.32512" height="27.32529" transform="translate(13.85176 77.0174) rotate(-45)" fill="none"/>
        <rect x="106.26047" y="28.15443" width="27.32512" height="27.32529" transform="translate(5.5555 97.04633) rotate(-45)" fill="none"/>
        <rect x="126.28928" y="8.12562" width="27.32512" height="27.32529" transform="translate(25.58431 105.34253) rotate(-45)" fill="none"/>
        <rect x="146.31821" y="28.15455" width="27.32512" height="27.32529" transform="translate(17.28806 125.37146) rotate(-45)" fill="none"/>
        <rect x="166.34702" y="8.12575" width="27.32512" height="27.32529" transform="translate(37.31687 133.66767) rotate(-45)" fill="none"/>
        <rect x="186.37595" y="28.15468" width="27.32512" height="27.32529" transform="translate(29.02061 153.6966) rotate(-45)" fill="none"/>
        <rect x="66.20275" y="28.1543" width="27.32512" height="27.32534" transform="translate(-6.17697 68.72148) rotate(-45.00018)" fill="none"/>
        <rect x="6.11625" y="8.12553" width="27.32512" height="27.32512" transform="translate(-9.61342 20.36731) rotate(-45)" fill="none"/>
        <rect x="26.14506" y="28.15433" width="27.32512" height="27.32512" transform="translate(-17.90963 40.39612) rotate(-45)" fill="none"/>
        <rect x="46.17387" y="8.12553" width="27.32512" height="27.32512" transform="translate(2.11918 48.69233) rotate(-45)" fill="none"/>
        <rect x="146.3184" y="108.27006" width="27.32512" height="27.32512" transform="translate(-39.36204 148.83686) rotate(-45)" fill="none"/>
        <rect x="126.28959" y="128.29887" width="27.32512" height="27.32512" transform="translate(-59.39085 140.54065) rotate(-45)" fill="none"/>
        <rect x="106.26049" y="148.3278" width="27.32546" height="27.32512" transform="translate(-79.41978 132.2444) rotate(-45)" fill="none"/>
        <rect x="86.23173" y="168.35673" width="27.32512" height="27.32512" transform="translate(-99.44871 123.94814) rotate(-45)" fill="none"/>
        <rect x="206.40476" y="8.12587" width="27.32512" height="27.32529" transform="translate(49.04942 161.9928) rotate(-45)" fill="none"/>
        <rect x="46.17411" y="208.41434" width="27.32512" height="27.32512" transform="translate(-139.50633 107.35573) rotate(-45)" fill="none"/>
        <rect x="66.20292" y="188.38554" width="27.32512" height="27.32512" transform="translate(-119.47752 115.65194) rotate(-45)" fill="none"/>
        <rect x="6.11603" y="48.18323" width="27.32538" height="27.32512" transform="translate(-37.93853 32.09988) rotate(-45)" fill="none"/>
        <rect x="186.37601" y="68.21244" width="27.32512" height="27.32512" transform="translate(0.69557 165.42926) rotate(-45)" fill="none"/>
        <rect x="26.1453" y="228.44315" width="27.32512" height="27.32512" transform="translate(-159.53514 99.05953) rotate(-45)" fill="none"/>
        <rect x="166.34721" y="88.24125" width="27.32512" height="27.32512" transform="translate(-19.33323 157.13306) rotate(-45)" fill="none"/>
        <rect x="206.40482" y="48.18363" width="27.32512" height="27.32512" transform="translate(20.72438 173.72547) rotate(-45)" fill="none"/>
        <rect x="106.26054" y="188.38554" width="27.32512" height="27.32512" transform="translate(-107.74492 143.97695) rotate(-45)" fill="none"/>
        <rect x="166.34721" y="128.29887" width="27.32512" height="27.32512" transform="translate(-47.65825 168.86566) rotate(-45)" fill="none"/>
        <rect x="206.40482" y="88.24125" width="27.32512" height="27.32512" transform="translate(-7.60063 185.45807) rotate(-45)" fill="none"/>
        <rect x="126.28929" y="168.35661" width="27.32546" height="27.32512" transform="translate(-87.71599 152.27321) rotate(-45)" fill="none"/>
        <polygon points="0 22.745 0 60.889 19.072 41.817 0 22.745" fill="none"/>
        <rect x="226.43363" y="68.21244" width="27.32512" height="27.32512" transform="translate(12.42818 193.75428) rotate(-45)" fill="none"/>
        <rect x="286.52006" y="8.12601" width="27.32512" height="27.32512" transform="translate(72.5146 218.64289) rotate(-45)" fill="none"/>
        <polygon points="0 342.707 0 419 451 419 451 0 342.707 0 0 342.707" fill="none"/>
        <rect x="266.49125" y="28.15482" width="27.32512" height="27.32512" transform="translate(52.4858 210.34669) rotate(-45)" fill="none"/>
        <rect x="246.46244" y="48.18363" width="27.32512" height="27.32512" transform="translate(32.45699 202.05048) rotate(-45)" fill="none"/>
        <rect x="6.11628" y="168.35647" width="27.32512" height="27.32521" transform="translate(-122.91383 67.2979) rotate(-45)" fill="none"/>
        <rect x="6.11638" y="208.41411" width="27.32514" height="27.3254" transform="translate(-151.2389 79.03062) rotate(-45)" fill="none"/>
        <rect x="6.11608" y="88.24094" width="27.32521" height="27.32538" transform="translate(-66.2637 43.83252) rotate(-45)" fill="none"/>
        <rect x="6.11622" y="128.29879" width="27.32512" height="27.32521" transform="translate(-94.5888 55.56524) rotate(-45)" fill="none"/>
        <rect x="86.23173" y="208.41434" width="27.32512" height="27.32512" transform="translate(-127.77373 135.68075) rotate(-45)" fill="none"/>
        <rect x="6.1162" y="248.47208" width="27.32546" height="27.32512" transform="translate(-179.56407 90.76328) rotate(-45)" fill="none"/>
        <rect x="66.20292" y="228.44315" width="27.32512" height="27.32512" transform="translate(-147.80253 127.38454) rotate(-45)" fill="none"/>
        <rect x="46.17411" y="248.47196" width="27.32512" height="27.32512" transform="translate(-167.83134 119.08834) rotate(-45)" fill="none"/>
        <rect x="26.14501" y="268.50089" width="27.32546" height="27.32512" transform="translate(-187.86027 110.79208) rotate(-45)" fill="none"/>
        <rect x="6.11625" y="288.52982" width="27.32512" height="27.32512" transform="translate(-207.8892 102.49583) rotate(-45)" fill="none"/>
        <rect x="146.3184" y="148.32767" width="27.32512" height="27.32512" transform="translate(-67.68706 160.56946) rotate(-45)" fill="none"/>
        <rect x="66.20283" y="148.32771" width="27.32514" height="27.32536" transform="translate(-91.15237 103.91898) rotate(-44.99991)" fill="none"/>
        <rect x="46.17402" y="168.35651" width="27.32512" height="27.32538" transform="translate(-111.18128 95.62304) rotate(-45)" fill="none"/>
        <rect x="66.20289" y="68.21212" width="27.32512" height="27.32521" transform="translate(-34.50213 80.45395) rotate(-45)" fill="none"/>
        <rect x="66.20272" y="108.2699" width="27.3254" height="27.32523" transform="translate(-62.82722 92.18636) rotate(-44.99991)" fill="none"/>
        <rect x="86.23176" y="88.24099" width="27.32512" height="27.32521" transform="translate(-42.79835 100.48282) rotate(-45)" fill="none"/>
        <rect x="46.17386" y="88.24102" width="27.32538" height="27.32521" transform="translate(-54.53103 72.15771) rotate(-45)" fill="none"/>
        <rect x="106.26058" y="68.21218" width="27.32512" height="27.32525" transform="translate(-22.76955 108.77904) rotate(-45)" fill="none"/>
        <rect x="126.28941" y="48.18336" width="27.32512" height="27.32529" transform="translate(-2.74075 117.07526) rotate(-45)" fill="none"/>
        <rect x="86.23161" y="128.29878" width="27.32544" height="27.32536" transform="translate(-71.12354 112.21551) rotate(-45)" fill="none"/>
        <rect x="126.28951" y="88.24106" width="27.32512" height="27.32534" transform="translate(-31.06581 128.80797) rotate(-45)" fill="none"/>
        <rect x="106.26069" y="108.26984" width="27.32512" height="27.32538" transform="translate(-51.09461 120.51175) rotate(-45)" fill="none"/>
        <rect x="46.17389" y="128.29883" width="27.32518" height="27.32523" transform="translate(-82.8561 83.8901) rotate(-44.99991)" fill="none"/>
        <polygon points="0 142.918 0 181.062 19.072 161.99 0 142.918" fill="none"/>
        <rect x="166.34714" y="48.18348" width="27.32512" height="27.32529" transform="translate(8.9918 145.40039) rotate(-45)" fill="none"/>
        <polygon points="0 62.803 0 100.946 19.072 81.875 0 62.803" fill="none"/>
        <polygon points="0 223.034 0 261.178 19.072 242.106 0 223.034" fill="none"/>
        <polygon points="0 102.861 0 141.004 19.072 121.933 0 102.861" fill="none"/>
        <polygon points="0 182.976 0 221.12 19.072 202.048 0 182.976" fill="none"/>
        <polygon points="0 263.092 0 301.235 19.072 282.164 0 263.092" fill="none"/>
        <rect x="146.31834" y="68.21229" width="27.32512" height="27.32529" transform="translate(-11.037 137.10419) rotate(-45)" fill="none"/>
        <rect x="226.43363" y="28.15482" width="27.32512" height="27.32512" transform="translate(40.75319 182.02167) rotate(-45)" fill="none"/>
        <rect x="246.46244" y="8.12601" width="27.32512" height="27.32512" transform="translate(60.782 190.31788) rotate(-45)" fill="none"/>
        <polygon points="0 303.149 0 341.293 19.072 322.221 0 303.149" fill="none"/>
        <rect x="86.23168" y="48.18328" width="27.32512" height="27.32525" transform="translate(-14.47331 88.75014) rotate(-45)" fill="none"/>
        <rect x="26.14521" y="188.38531" width="27.32512" height="27.32538" transform="translate(-131.21009 87.32683) rotate(-45)" fill="none"/>
        <rect x="26.14509" y="148.32766" width="27.32512" height="27.32521" transform="translate(-102.88502 75.59411) rotate(-45)" fill="none"/>
        <rect x="26.14501" y="108.26995" width="27.32521" height="27.32521" transform="translate(-74.55996 63.86145) rotate(-45)" fill="none"/>
        <rect x="26.14493" y="68.21201" width="27.32538" height="27.32538" transform="translate(-46.23477 52.12878) rotate(-45)" fill="none"/>
        <rect x="46.17396" y="48.18311" width="27.32512" height="27.32538" transform="translate(-26.20587 60.42502) rotate(-45)" fill="none"/>
        <path d="M341.293,0l-1.05249,1.05249L339.188,0h-1.41406l1.75952,1.75952-19.322,19.322L300.88965,1.75977,302.64941,0h-1.41406l-1.05273,1.05273L299.12988,0h-1.41406l1.75977,1.75977L280.15381,21.08154,260.832,1.75977,262.5918,0h-1.41406L260.125,1.05273,259.07227,0H257.6582L259.418,1.75977,240.09619,21.08154l-19.3219-19.3219L222.53394,0h-1.41406l-1.05261,1.05261L219.01465,0h-1.41406l1.75964,1.75964L200.03845,21.08142l-19.3219-19.3219L182.47607,0H181.062l-1.05249,1.05249L178.957,0H177.543l1.75952,1.75952L159.98071,21.0813,140.65881,1.7594,142.41821,0h-1.41406l-1.05237,1.05237L138.89941,0h-1.41406l1.7594,1.7594L119.923,21.08118l-19.3219-19.3219L102.36035,0h-1.41406L99.894,1.05225,98.8418,0H97.42773L99.187,1.75928,79.86523,21.08105,60.54346,1.75928,62.30273,0H60.88867L59.83643,1.05225,58.78418,0H57.37012l1.75928,1.75928L39.80762,21.08105,20.48584,1.75928,22.24512,0H20.83105L19.77881,1.05225,18.72656,0H17.3125l1.75928,1.75928L0,20.83105v1.91406L19.07178,41.81689,0,60.88867V62.8031L19.07159,81.87469,0,100.94629v1.91455l19.07172,19.07172L0,141.00427v1.91418l19.07178,19.07178L0,181.062v1.91406l19.07184,19.07184L0,221.11969v1.91406l19.072,19.072L0,261.17773v1.91406l19.07178,19.07178L0,301.23535v1.91406l19.07178,19.07178L0,341.293V342.707L342.707,0ZM260.125,2.4668l19.32178,19.32178L260.125,41.11035,240.80322,21.78857Zm-.707,39.35059L240.09619,61.13916,220.77441,41.81738l19.32178-19.32178ZM179.30273,81.875,159.981,101.19678l-19.3219-19.3219L159.98084,62.5531ZM160.68787,61.84607l19.32178-19.32178,19.3219,19.3219L180.00977,81.168ZM99.18732,121.93243l-19.322,19.322-19.32184-19.3219,19.322-19.322ZM80.57251,101.90356,99.89429,82.58179l19.32184,19.32184L99.89435,121.2254Zm-20.736,19.322L40.51465,101.90369l19.322-19.322,19.32184,19.32184Zm19.32184,20.736L59.83649,161.28326,40.51465,141.96143l19.32184-19.32184Zm.00012,40.0578L59.83667,201.34106l-19.322-19.322,19.32178-19.32178Zm-18.61493-20.029,19.32184-19.32178,19.3219,19.322L79.86548,181.31226Zm20.02887-20.02881,19.322-19.322,19.322,19.322-19.322,19.322Zm20.029-20.02905,19.32178-19.32178,19.322,19.322-19.32178,19.32178Zm20.02881-20.02881L139.952,82.58191l19.3219,19.3219-19.32178,19.32178ZM139.952,81.16785l-19.3219-19.3219L139.9519,42.52417l19.3219,19.3219Zm-.707.707-19.32184,19.32172L100.60132,81.87476,119.9231,62.553Zm-39.35071-.70715L80.57245,61.84589,99.89417,42.524l19.3219,19.3219Zm-.707.707L79.86548,101.19653,60.54364,81.87469,79.86542,62.55292Zm-39.35065-.70709-19.322-19.322L59.83643,42.52393l19.322,19.322Zm-.707.707-19.322,19.322-19.322-19.322,19.322-19.322Zm-.00012,40.05786L39.80762,141.25439,20.48578,121.93256l19.32184-19.32184Zm0,40.05774L39.80768,181.31207,20.48584,161.99023l19.32178-19.32178Zm.00018,40.0578L39.80786,221.36987l-19.322-19.322,19.32178-19.32178Zm0,40.05762L39.80786,261.42749,20.48608,242.10571l19.32178-19.32178ZM40.51489,222.0769l19.32178-19.32178L79.15845,222.0769,59.83667,241.39868ZM60.5437,202.0481l19.32178-19.32178L99.18726,202.0481,79.86548,221.36987Zm20.02881-20.02881,19.32178-19.32178,19.32178,19.32178L99.89429,201.34106Zm20.02881-20.02881,19.322-19.322,19.32178,19.32178-19.322,19.322Zm20.02905-20.02905,19.32178-19.32178,19.32178,19.32178L139.95215,161.2832Zm20.02881-20.02881L159.981,102.61084l19.32178,19.32178L159.981,141.25439ZM160.688,101.90381,180.00977,82.582l19.32178,19.32178-19.32178,19.32178ZM180.7168,81.875l19.32178-19.32178L219.36035,81.875l-19.32178,19.32178Zm20.02881-20.02881,19.32178-19.32178,19.32178,19.32178L220.06738,81.168ZM220.06726,2.46667l19.3219,19.3219L220.06738,41.11035l-19.3219-19.3219Zm-.70691,39.35071L200.03857,61.13916l-19.3219-19.3219,19.32178-19.32178ZM180.00952,2.46655l19.3219,19.3219L180.00964,41.11023l-19.3219-19.3219Zm-.70691,39.35071L159.98084,61.139l-19.3219-19.3219,19.32178-19.32178ZM139.95178,2.46643l19.3219,19.3219L139.9519,41.11011,120.63,21.78821Zm-.70691,39.35071L119.9231,61.13892,100.6012,41.817,119.923,22.49524ZM99.894,2.46631l19.3219,19.3219L99.89417,41.11l-19.3219-19.3219ZM99.18713,41.817,79.86542,61.13885l-19.322-19.322L79.86523,22.49512ZM59.83643,2.46631,79.1582,21.78809,59.83643,41.10986,40.51465,21.78809Zm-.707,39.35059L39.80762,61.13867,20.48584,41.81689,39.80762,22.49512ZM.457,21.78809,19.77881,2.46631,39.10059,21.78809,19.77881,41.10986ZM.45685,61.84589l19.322-19.322L39.10059,61.8457l-19.322,19.322ZM.45679,101.90356,19.77863,82.58173l19.322,19.322L19.77875,121.22552ZM.457,141.96136l19.32178-19.32178,19.32184,19.32184L19.77881,161.2832ZM.457,182.019l19.32178-19.32178L39.10065,182.0191,19.77887,201.34088Zm0,40.05768,19.32184-19.32178,19.322,19.322L19.77905,241.39868Zm0,40.058,19.322-19.322,19.32178,19.32178-19.322,19.322Zm19.32178,59.37939L.457,302.19238l19.32178-19.32178,19.32178,19.32178Zm20.02881-20.02881L20.48584,282.16357l19.322-19.322,19.32178,19.32178ZM59.83667,281.4563,40.51489,262.13452l19.32178-19.32178,19.32178,19.32178Zm20.02881-20.02881L60.5437,242.10571l19.32178-19.32178,19.32178,19.32178Zm20.02881-20.02881L80.57251,222.0769l19.32178-19.32178,19.32178,19.32178Zm20.02881-20.02881L100.60132,202.0481l19.32178-19.32178,19.32178,19.32178Zm20.02881-20.02881-19.32178-19.32178,19.322-19.322L159.27393,182.019ZM159.981,181.312l-19.32178-19.32178L159.981,142.66846l19.32178,19.32178Zm20.02881-20.02881L160.688,141.96143l19.32178-19.32178,19.32178,19.32178Zm20.02881-20.02881L180.7168,121.93262l19.32178-19.32178,19.32178,19.32178Zm20.02881-20.02881-19.32178-19.32178L220.06738,82.582l19.32178,19.32178Zm20.02881-20.02881L220.77441,81.875l19.32178-19.32178L259.418,81.875ZM260.125,81.168,240.80322,61.84619,260.125,42.52441l19.32178,19.32178Zm20.02881-20.02881L260.832,41.81738l19.32178-19.32178,19.32178,19.32178Zm20.02881-20.02881L280.86084,21.78857,300.18262,2.4668l19.32178,19.32178Z" fill="#456de7"/>
      </g>
    </g>
  </g>
</svg>
