<svg id="Layer_1" data-name="Layer 1" xmlns="http://www.w3.org/2000/svg" width="342.70001" height="342.69998" viewBox="0 0 342.70001 342.69998">
  <defs>
    <style>
      .cls-1 {
        opacity: 0.1;
      }

      .cls-2 {
        fill: none;
      }

      .cls-3 {
        fill: #456de7;
      }
    </style>
  </defs>
  <title>grid</title>
  <g id="Layer_2" data-name="Layer 2">
    <g id="Layer_1-2" data-name="Layer 1-2">
      <g class="cls-1">
        <polygon class="cls-2" points="100.9 0 98.8 0 99.9 1.1 100.9 0"/>
        <polygon class="cls-2" points="119.9 21.1 139.2 1.8 137.5 0 102.4 0 100.6 1.8 119.9 21.1"/>
        <polygon class="cls-2" points="160 21.1 179.3 1.8 177.5 0 142.4 0 140.7 1.8 160 21.1"/>
        <polygon class="cls-2" points="141 0 138.9 0 140 1.1 141 0"/>
        <polygon class="cls-2" points="181.1 0 179 0 180 1.1 181.1 0"/>
        <polygon class="cls-2" points="39.8 21.1 59.1 1.8 57.4 0 22.2 0 20.5 1.8 39.8 21.1"/>
        <polygon class="cls-2" points="60.9 0 58.8 0 59.8 1.1 60.9 0"/>
        <polygon class="cls-2" points="79.9 21.1 99.2 1.8 97.4 0 62.3 0 60.5 1.8 79.9 21.1"/>
        <polygon class="cls-2" points="20.8 0 18.7 0 19.8 1.1 20.8 0"/>
        <polygon class="cls-2" points="341.3 0 339.2 0 340.2 1.1 341.3 0"/>
        <polygon class="cls-2" points="301.2 0 299.1 0 300.2 1.1 301.2 0"/>
        <polygon class="cls-2" points="200 21.1 219.4 1.8 217.6 0 182.5 0 180.7 1.8 200 21.1"/>
        <polygon class="cls-2" points="17.3 0 0 0 0 20.8 19.1 1.8 17.3 0"/>
        <polygon class="cls-2" points="320.2 21.1 339.5 1.8 337.8 0 302.6 0 300.9 1.8 320.2 21.1"/>
        <polygon class="cls-2" points="221.1 0 219 0 220.1 1.1 221.1 0"/>
        <polygon class="cls-2" points="240.1 21.1 259.4 1.8 257.7 0 222.5 0 220.8 1.8 240.1 21.1"/>
        <polygon class="cls-2" points="280.2 21.1 299.5 1.8 297.7 0 262.6 0 260.8 1.8 280.2 21.1"/>
        <polygon class="cls-2" points="261.2 0 259.1 0 260.1 1.1 261.2 0"/>
        <rect class="cls-2" x="186.40692" y="108.28752" width="27.29974" height="27.29974" transform="translate(-27.62748 177.17615) rotate(-45)"/>
        <rect class="cls-2" x="86.18529" y="8.14303" width="27.29974" height="27.29974" transform="translate(13.83114 76.97711) rotate(-45)"/>
        <rect class="cls-2" x="106.31441" y="28.17192" width="27.29974" height="27.29974" transform="translate(5.56425 97.07687) rotate(-45)"/>
        <rect class="cls-2" x="126.2725" y="8.11341" width="27.29974" height="27.29974" transform="translate(25.59335 105.31437) rotate(-45)"/>
        <rect class="cls-2" x="146.33101" y="28.21312" width="27.29974" height="27.29974" transform="translate(17.25571 125.38495) rotate(-45)"/>
        <rect class="cls-2" x="166.2891" y="8.15461" width="27.29974" height="27.29974" transform="translate(37.28481 133.62245) rotate(-45)"/>
        <rect class="cls-2" x="186.41821" y="28.18351" width="27.29974" height="27.29974" transform="translate(29.01792 153.72221) rotate(-45)"/>
        <rect class="cls-2" x="66.2272" y="28.20183" width="27.29974" height="27.29974" transform="translate(-6.19817 68.73969) rotate(-45)"/>
        <rect class="cls-2" x="6.08138" y="8.13163" width="27.29974" height="27.29974" transform="translate(-9.6227 20.33175) rotate(-45)"/>
        <rect class="cls-2" x="26.13989" y="28.23114" width="27.29974" height="27.29974" transform="translate(-17.96019 40.40227) rotate(-45)"/>
        <rect class="cls-2" x="46.16869" y="8.10192" width="27.29974" height="27.29974" transform="translate(2.13961 48.66906) rotate(-45)"/>
        <rect class="cls-2" x="146.31962" y="108.31723" width="27.29974" height="27.29974" transform="translate(-39.38978 148.83885) rotate(-45)"/>
        <rect class="cls-2" x="126.29072" y="128.30493" width="27.29974" height="27.29974" transform="translate(-59.38955 140.53054) rotate(-45)"/>
        <rect class="cls-2" x="106.26182" y="148.29273" width="27.29974" height="27.29974" transform="translate(-79.38939 132.22226) rotate(-45)"/>
        <rect class="cls-2" x="86.23291" y="168.42194" width="27.29974" height="27.29974" transform="translate(-99.48922 123.95539) rotate(-45)"/>
        <rect class="cls-2" x="206.3763" y="8.12501" width="27.29974" height="27.29974" transform="translate(49.04701 161.95971) rotate(-45)"/>
        <rect class="cls-2" x="46.17531" y="208.39744" width="27.29974" height="27.29974" transform="translate(-139.48877 107.33894) rotate(-45)"/>
        <rect class="cls-2" x="66.20411" y="188.40965" width="27.29974" height="27.29974" transform="translate(-119.48897 115.64715) rotate(-45)"/>
        <rect class="cls-2" x="6.11099" y="48.21894" width="27.29974" height="27.29974" transform="translate(-37.96003 32.09399) rotate(-45)"/>
        <rect class="cls-2" x="186.37721" y="68.20022" width="27.29974" height="27.29974" transform="translate(0.70982 165.41384) rotate(-45)"/>
        <rect class="cls-2" x="26.07581" y="228.45595" width="27.29974" height="27.29974" transform="translate(-159.55929 99.00145) rotate(-45)"/>
        <rect class="cls-2" x="166.2777" y="88.25872" width="27.29974" height="27.29974" transform="translate(-19.36069 157.07634) rotate(-45)"/>
        <rect class="cls-2" x="206.40601" y="48.21241" width="27.29974" height="27.29974" transform="translate(20.70964 173.72205) rotate(-45)"/>
        <rect class="cls-2" x="106.29142" y="188.37993" width="27.29974" height="27.29974" transform="translate(-107.72665 143.98446) rotate(-45)"/>
        <rect class="cls-2" x="166.30742" y="128.34604" width="27.29974" height="27.29974" transform="translate(-47.698 168.83866) rotate(-45)"/>
        <rect class="cls-2" x="206.36501" y="88.22901" width="27.29974" height="27.29974" transform="translate(-7.59838 185.41365) rotate(-45)"/>
        <rect class="cls-2" x="126.32032" y="168.39223" width="27.29974" height="27.29974" transform="translate(-87.72688 152.29276) rotate(-45)"/>
        <polygon class="cls-2" points="0 22.7 0 60.9 19.1 41.8 0 22.7"/>
        <rect class="cls-2" x="226.39381" y="68.24122" width="27.29974" height="27.29974" transform="translate(12.40142 193.72186) rotate(-45)"/>
        <rect class="cls-2" x="286.48022" y="8.1364" width="27.29972" height="27.29974" transform="translate(72.50085 218.60507) rotate(-45)"/>
        <rect class="cls-2" x="266.52213" y="28.19491" width="27.29972" height="27.29974" transform="translate(52.47175 210.36756) rotate(-45)"/>
        <rect class="cls-2" x="246.49333" y="48.18272" width="27.29972" height="27.29974" transform="translate(32.47193 202.05936) rotate(-45)"/>
        <rect class="cls-2" x="6.1291" y="168.41035" width="27.29974" height="27.29974" transform="translate(-122.94289 67.31005) rotate(-45)"/>
        <rect class="cls-2" x="6.088" y="208.42705" width="27.29974" height="27.29974" transform="translate(-151.25101 79.0016) rotate(-45)"/>
        <rect class="cls-2" x="6.06979" y="88.23554" width="27.29974" height="27.29974" transform="translate(-66.26811 43.78545) rotate(-45)"/>
        <rect class="cls-2" x="6.0994" y="128.32295" width="27.29974" height="27.29974" transform="translate(-94.60552 55.54772) rotate(-45)"/>
        <rect class="cls-2" x="86.19191" y="208.43844" width="27.29974" height="27.29974" transform="translate(-127.79717 135.64696) rotate(-45)"/>
        <rect class="cls-2" x="6.11751" y="248.51447" width="27.29974" height="27.29972" transform="translate(-179.58844 90.7638) rotate(-45)"/>
        <rect class="cls-2" x="66.1631" y="228.42624" width="27.29974" height="27.29974" transform="translate(-147.79698 127.33875) rotate(-45)"/>
        <rect class="cls-2" x="46.20502" y="248.48476" width="27.29974" height="27.29972" transform="translate(-167.82608 119.10125) rotate(-45)"/>
        <rect class="cls-2" x="26.1053" y="268.54327" width="27.29974" height="27.29972" transform="translate(-187.89665 110.76361) rotate(-45)"/>
        <rect class="cls-2" x="6.0764" y="288.53096" width="27.29974" height="27.29972" transform="translate(-207.89642 102.45529) rotate(-45)"/>
        <rect class="cls-2" x="146.27862" y="148.33383" width="27.29974" height="27.29974" transform="translate(-67.6978 160.53045) rotate(-45)"/>
        <rect class="cls-2" x="66.17451" y="148.32204" width="27.29974" height="27.29974" transform="translate(-91.15142 103.88483) rotate(-45)"/>
        <rect class="cls-2" x="46.21632" y="168.38074" width="27.29974" height="27.29974" transform="translate(-111.18068 95.64732) rotate(-45)"/>
        <rect class="cls-2" x="66.18609" y="68.21823" width="27.29974" height="27.29974" transform="translate(-34.50608 80.43116) rotate(-45)"/>
        <rect class="cls-2" x="66.2157" y="108.30544" width="27.29974" height="27.29974" transform="translate(-62.84334 92.19337) rotate(-45)"/>
        <rect class="cls-2" x="86.17379" y="88.24713" width="27.29974" height="27.29974" transform="translate(-42.81439 100.43093) rotate(-45)"/>
        <rect class="cls-2" x="46.1572" y="88.20603" width="27.29974" height="27.29974" transform="translate(-54.50591 72.12288) rotate(-45)"/>
        <rect class="cls-2" x="106.27341" y="68.18862" width="27.29974" height="27.29974" transform="translate(-22.74383 108.7685) rotate(-45)"/>
        <rect class="cls-2" x="126.30221" y="48.20092" width="27.29974" height="27.29974" transform="translate(-2.7441 117.07674) rotate(-45)"/>
        <rect class="cls-2" x="86.20341" y="128.33454" width="27.29974" height="27.29974" transform="translate(-71.15179 112.1932) rotate(-45)"/>
        <rect class="cls-2" x="126.26111" y="88.21762" width="27.29974" height="27.29974" transform="translate(-31.05221 128.7683) rotate(-45)"/>
        <rect class="cls-2" x="106.30302" y="108.27603" width="27.29974" height="27.29974" transform="translate(-51.08125 120.53077) rotate(-45)"/>
        <rect class="cls-2" x="46.18681" y="128.29314" width="27.29974" height="27.29974" transform="translate(-82.84311 83.88506) rotate(-45)"/>
        <polygon class="cls-2" points="0 142.9 0 181.1 19.1 162 0 142.9"/>
        <rect class="cls-2" x="166.31871" y="48.24203" width="27.29974" height="27.29974" transform="translate(8.9474 145.38472) rotate(-45)"/>
        <polygon class="cls-2" points="0 62.8 0 100.9 19.1 81.9 0 62.8"/>
        <polygon class="cls-2" points="0 223 0 261.2 19.1 242.1 0 223"/>
        <polygon class="cls-2" points="0 102.9 0 141 19.1 121.9 0 102.9"/>
        <polygon class="cls-2" points="0 183 0 221.1 19.1 202 0 183"/>
        <polygon class="cls-2" points="0 263.1 0 301.2 19.1 282.2 0 263.1"/>
        <rect class="cls-2" x="146.28991" y="68.22982" width="27.29974" height="27.29974" transform="translate(-11.05241 137.07651) rotate(-45)"/>
        <rect class="cls-2" x="226.43481" y="28.22462" width="27.29974" height="27.29974" transform="translate(40.70944 182.03026) rotate(-45)"/>
        <rect class="cls-2" x="246.46362" y="8.0954" width="27.29972" height="27.29974" transform="translate(60.80924 190.29705) rotate(-45)"/>
        <polygon class="cls-2" points="0 303.1 0 341.3 19.1 322.2 0 303.1"/>
        <rect class="cls-2" x="86.21489" y="48.23043" width="27.29974" height="27.29974" transform="translate(-14.50627 88.73937) rotate(-45)"/>
        <rect class="cls-2" x="26.1168" y="188.43925" width="27.29974" height="27.29974" transform="translate(-131.2512 87.30982) rotate(-45)"/>
        <rect class="cls-2" x="26.0872" y="148.35185" width="27.29974" height="27.29974" transform="translate(-102.9138 75.54755) rotate(-45)"/>
        <rect class="cls-2" x="26.1282" y="108.33515" width="27.29974" height="27.29974" transform="translate(-74.60571 63.85593) rotate(-45)"/>
        <rect class="cls-2" x="26.09869" y="68.24784" width="27.29974" height="27.29974" transform="translate(-46.26834 52.09376) rotate(-45)"/>
        <rect class="cls-2" x="46.1983" y="48.18933" width="27.29974" height="27.29974" transform="translate(-26.19779 60.43133) rotate(-45)"/>
        <path class="cls-3" d="M341.3,0l-1.1,1.1-1-1.1h-1.4l1.8,1.8L320.3,21.1,300.9,1.8,302.7,0h-1.4l-1.1,1.1L299.1,0h-1.4l1.8,1.8L280.2,21.1,260.8,1.8,262.6,0h-1.4l-1.1,1.1-1-1.1h-1.4l1.8,1.8L240.2,21.1,220.8,1.8,222.6,0h-1.4l-1.1,1.1L219,0h-1.4l1.8,1.8L200,21.1,180.7,1.8,182.5,0h-1.4L180,1.1,179,0h-1.4l1.8,1.8L160,21.1,140.7,1.8,142.5,0H141l-1,1.1L138.9,0h-1.4l1.8,1.8L120,21.1,100.6,1.8,102.4,0H101L99.9,1.1,98.8,0H97.4l1.8,1.8L79.9,21.1,60.5,1.8,62.3,0H60.9L59.8,1.1,58.8,0H57.4l1.8,1.8L39.8,21.1,20.5,1.8,22.2,0H20.8L19.7,1.1,18.7,0H17.3l1.8,1.8L0,20.8v1.9L19.1,41.8,0,60.9v1.9L19.1,81.9,0,100.9v1.9l19.1,19.1L0,141v1.9L19.1,162,0,181.1V183l19.1,19L0,221.1V223l19.1,19.1L0,261.2v1.9l19.1,19.1L0,301.2v1.9l19.1,19.1L0,341.3v1.4L342.7,0ZM260.1,2.5l19.3,19.3L260.1,41.1,240.8,21.8Zm-.7,39.3L240.1,61.1,220.8,41.8l19.3-19.3ZM179.3,81.9,160,101.2,140.7,81.9,160,62.6ZM160.7,61.8,180,42.5l19.3,19.3L180,81.2ZM99.2,121.9,79.9,141.2,60.6,121.9l19.3-19.3Zm-18.6-20L99.9,82.6l19.3,19.3L99.9,121.2ZM59.8,121.2,40.5,101.9,59.8,82.6l19.3,19.3ZM79.2,142,59.9,161.3,40.5,142l19.3-19.3Zm0,40L59.9,201.3,40.5,182l19.3-19.3ZM60.5,162l19.3-19.3L99.2,162,79.9,181.3Zm20.1-20,19.3-19.3L119.2,142,99.9,161.3Zm20-20.1,19.3-19.3,19.3,19.3-19.3,19.3Zm20-20L140,82.6l19.3,19.3L140,121.2ZM140,81.2,120.7,61.9,140,42.5l19.3,19.3Zm-.8.7-19.3,19.3L100.6,81.9l19.3-19.3Zm-39.3-.7L80.6,61.8,99.9,42.5l19.3,19.3Zm-.7.7L79.9,101.2,60.5,81.9,79.8,62.6Zm-39.4-.7L40.5,61.8,59.8,42.5,79.1,61.8Zm-.7.7L39.8,101.2,20.5,81.9,39.8,62.6Zm0,40L39.8,141.2,20.5,121.9l19.3-19.3Zm0,40.1L39.8,181.3,20.5,162l19.3-19.3Zm0,40L39.8,221.3,20.5,202l19.3-19.3Zm0,40.1L39.8,261.4,20.5,242.1l19.3-19.3Zm-18.6-20,19.3-19.3,19.3,19.3L59.8,241.4Zm20-20.1,19.3-19.3L99.2,202,79.9,221.3Zm20.1-20,19.3-19.3L119.2,182,99.9,201.3Zm20-20,19.3-19.3L139.2,162l-19.3,19.3Zm20-20,19.3-19.3L159.2,142,140,161.3Zm20.1-20.1L160,102.6l19.3,19.3L160,141.3Zm20-20L180,82.6l19.3,19.3L180,121.2Zm20-20L200,62.6l19.3,19.3L200,101.2Zm20-20.1L220,42.5l19.3,19.3L220,81.1ZM220.1,2.5l19.3,19.3L220.1,41.1,200.8,21.8Zm-.7,39.3L200,61.1,180.7,41.8,200,22.5ZM180,2.5l19.3,19.3L180,41.1,160.7,21.8Zm-.7,39.3L160,61.1,140.7,41.8,160,22.5ZM140,2.5l19.3,19.3L140,41.1,120.7,21.8Zm-.8,39.3L119.9,61.1,100.6,41.8l19.3-19.3ZM99.9,2.5l19.3,19.3L99.9,41.1,80.6,21.8Zm-.7,39.3L79.9,61.1,60.5,41.8,79.8,22.5ZM59.8,2.5,79.1,21.8,59.8,41.1,40.5,21.8Zm-.7,39.3L39.8,61.1,20.5,41.8,39.8,22.5ZM.5,21.8,19.8,2.5,39.1,21.8,19.8,41.1Zm0,40L19.8,42.5,39.1,61.8,19.8,81.2Zm0,40.1L19.8,82.6l19.3,19.3L19.8,121.2ZM.5,142l19.3-19.3L39.1,142,19.8,161.3Zm0,40,19.3-19.3L39.1,182,19.8,201.3Zm0,40.1,19.3-19.3,19.3,19.3L19.8,241.4Zm0,40,19.3-19.3,19.3,19.3L19.8,281.4Zm19.3,59.4L.5,302.2l19.3-19.3,19.3,19.3Zm20-20L20.5,282.2l19.3-19.3,19.3,19.3Zm20-20L40.5,262.2l19.3-19.3,19.3,19.3Zm20.1-20.1L60.6,242.1l19.3-19.3,19.3,19.3Zm20-20L80.6,222.1l19.3-19.3,19.3,19.3Zm20-20L100.6,202l19.3-19.3L139.2,202ZM140,201.3,120.6,182l19.3-19.3L159.2,182Zm20-20L140.7,162,160,142.7,179.3,162Zm20-20L160.7,142,180,122.7,199.3,142Zm20-20L180.7,122,200,102.7,219.3,122Zm20.1-20.1-19.3-19.3,19.3-19.3,19.3,19.3Zm20-20L220.8,81.9l19.3-19.3,19.3,19.3Zm20-20L240.8,61.9l19.3-19.3,19.3,19.3Zm20.1-20.1L260.9,41.8l19.3-19.3,19.3,19.3Zm20-20L280.9,21.8,300.2,2.5l19.3,19.3Z"/>
      </g>
    </g>
  </g>
</svg>
