<?xml version="1.0" standalone="no"?>
<!DOCTYPE svg PUBLIC "-//W3C//DTD SVG 20010904//EN"
 "http://www.w3.org/TR/2001/REC-SVG-20010904/DTD/svg10.dtd">
<svg version="1.0" xmlns="http://www.w3.org/2000/svg"
 width="520.000000pt" height="520.000000pt" viewBox="0 0 520.000000 520.000000"
 preserveAspectRatio="xMidYMid meet">
<metadata>
Created by potrace 1.11, written by Peter Selinger 2001-2013
</metadata>
<g transform="translate(0.000000,520.000000) scale(0.100000,-0.100000)"
fill="#000000" stroke="none">
<path d="M2379 5116 c-2 -2 -33 -6 -69 -10 -340 -32 -736 -171 -1047 -367
-393 -247 -710 -595 -916 -1004 -114 -228 -187 -446 -231 -695 -8 -47 -18
-101 -22 -120 -10 -58 -13 -530 -3 -600 5 -36 12 -83 15 -105 33 -233 123
-515 238 -745 345 -688 992 -1186 1741 -1340 54 -11 122 -23 150 -26 27 -4 73
-10 100 -14 56 -10 528 -5 590 5 22 3 105 19 185 36 966 194 1735 949 1950
1914 49 220 55 281 54 580 0 274 -14 386 -76 625 -227 875 -946 1581 -1832
1800 -206 50 -312 63 -572 66 -138 2 -253 2 -255 0z"/>
</g>
</svg>
